<mxfile host="app.diagrams.net" modified="2020-11-27T23:57:31.361Z" agent="5.0 (X11)" etag="C0fJuIKu5bPDY-MsPEXy" version="13.10.4" type="github">
  <diagram id="R2lEEEUBdFMjLlhIrx00" name="Page-1">
    <mxGraphModel dx="1107" dy="626" grid="1" gridSize="10" guides="1" tooltips="1" connect="1" arrows="1" fold="1" page="1" pageScale="1" pageWidth="1100" pageHeight="850" math="0" shadow="0" extFonts="Permanent Marker^https://fonts.googleapis.com/css?family=Permanent+Marker">
      <root>
        <mxCell id="0" />
        <mxCell id="1" parent="0" />
        <mxCell id="p_RCJzg9CvuN4MjvWSVo-2" value="Drawing" style="shape=table;startSize=30;container=1;collapsible=1;childLayout=tableLayout;fixedRows=1;rowLines=0;fontStyle=1;align=center;resizeLast=1;" vertex="1" parent="1">
          <mxGeometry x="670" y="150" width="180" height="160" as="geometry" />
        </mxCell>
        <mxCell id="p_RCJzg9CvuN4MjvWSVo-3" value="" style="shape=partialRectangle;collapsible=0;dropTarget=0;pointerEvents=0;fillColor=none;top=0;left=0;bottom=1;right=0;points=[[0,0.5],[1,0.5]];portConstraint=eastwest;" vertex="1" parent="p_RCJzg9CvuN4MjvWSVo-2">
          <mxGeometry y="30" width="180" height="30" as="geometry" />
        </mxCell>
        <mxCell id="p_RCJzg9CvuN4MjvWSVo-4" value="PK" style="shape=partialRectangle;connectable=0;fillColor=none;top=0;left=0;bottom=0;right=0;fontStyle=1;overflow=hidden;" vertex="1" parent="p_RCJzg9CvuN4MjvWSVo-3">
          <mxGeometry width="30" height="30" as="geometry" />
        </mxCell>
        <mxCell id="p_RCJzg9CvuN4MjvWSVo-5" value="drawingID" style="shape=partialRectangle;connectable=0;fillColor=none;top=0;left=0;bottom=0;right=0;align=left;spacingLeft=6;fontStyle=5;overflow=hidden;" vertex="1" parent="p_RCJzg9CvuN4MjvWSVo-3">
          <mxGeometry x="30" width="150" height="30" as="geometry" />
        </mxCell>
        <mxCell id="p_RCJzg9CvuN4MjvWSVo-6" value="" style="shape=partialRectangle;collapsible=0;dropTarget=0;pointerEvents=0;fillColor=none;top=0;left=0;bottom=0;right=0;points=[[0,0.5],[1,0.5]];portConstraint=eastwest;" vertex="1" parent="p_RCJzg9CvuN4MjvWSVo-2">
          <mxGeometry y="60" width="180" height="30" as="geometry" />
        </mxCell>
        <mxCell id="p_RCJzg9CvuN4MjvWSVo-7" value="FK" style="shape=partialRectangle;connectable=0;fillColor=none;top=0;left=0;bottom=0;right=0;editable=1;overflow=hidden;" vertex="1" parent="p_RCJzg9CvuN4MjvWSVo-6">
          <mxGeometry width="30" height="30" as="geometry" />
        </mxCell>
        <mxCell id="p_RCJzg9CvuN4MjvWSVo-8" value="userID" style="shape=partialRectangle;connectable=0;fillColor=none;top=0;left=0;bottom=0;right=0;align=left;spacingLeft=6;overflow=hidden;" vertex="1" parent="p_RCJzg9CvuN4MjvWSVo-6">
          <mxGeometry x="30" width="150" height="30" as="geometry" />
        </mxCell>
        <mxCell id="p_RCJzg9CvuN4MjvWSVo-9" value="" style="shape=partialRectangle;collapsible=0;dropTarget=0;pointerEvents=0;fillColor=none;top=0;left=0;bottom=0;right=0;points=[[0,0.5],[1,0.5]];portConstraint=eastwest;" vertex="1" parent="p_RCJzg9CvuN4MjvWSVo-2">
          <mxGeometry y="90" width="180" height="30" as="geometry" />
        </mxCell>
        <mxCell id="p_RCJzg9CvuN4MjvWSVo-10" value="" style="shape=partialRectangle;connectable=0;fillColor=none;top=0;left=0;bottom=0;right=0;editable=1;overflow=hidden;" vertex="1" parent="p_RCJzg9CvuN4MjvWSVo-9">
          <mxGeometry width="30" height="30" as="geometry" />
        </mxCell>
        <mxCell id="p_RCJzg9CvuN4MjvWSVo-11" value="date" style="shape=partialRectangle;connectable=0;fillColor=none;top=0;left=0;bottom=0;right=0;align=left;spacingLeft=6;overflow=hidden;" vertex="1" parent="p_RCJzg9CvuN4MjvWSVo-9">
          <mxGeometry x="30" width="150" height="30" as="geometry" />
        </mxCell>
        <mxCell id="p_RCJzg9CvuN4MjvWSVo-76" value="" style="shape=partialRectangle;collapsible=0;dropTarget=0;pointerEvents=0;fillColor=none;top=0;left=0;bottom=0;right=0;points=[[0,0.5],[1,0.5]];portConstraint=eastwest;" vertex="1" parent="p_RCJzg9CvuN4MjvWSVo-2">
          <mxGeometry y="120" width="180" height="30" as="geometry" />
        </mxCell>
        <mxCell id="p_RCJzg9CvuN4MjvWSVo-77" value="" style="shape=partialRectangle;connectable=0;fillColor=none;top=0;left=0;bottom=0;right=0;editable=1;overflow=hidden;" vertex="1" parent="p_RCJzg9CvuN4MjvWSVo-76">
          <mxGeometry width="30" height="30" as="geometry" />
        </mxCell>
        <mxCell id="p_RCJzg9CvuN4MjvWSVo-78" value="file" style="shape=partialRectangle;connectable=0;fillColor=none;top=0;left=0;bottom=0;right=0;align=left;spacingLeft=6;overflow=hidden;" vertex="1" parent="p_RCJzg9CvuN4MjvWSVo-76">
          <mxGeometry x="30" width="150" height="30" as="geometry" />
        </mxCell>
        <mxCell id="p_RCJzg9CvuN4MjvWSVo-15" value="User" style="shape=table;startSize=30;container=1;collapsible=1;childLayout=tableLayout;fixedRows=1;rowLines=0;fontStyle=1;align=center;resizeLast=1;" vertex="1" parent="1">
          <mxGeometry x="360" y="300" width="180" height="160" as="geometry" />
        </mxCell>
        <mxCell id="p_RCJzg9CvuN4MjvWSVo-16" value="" style="shape=partialRectangle;collapsible=0;dropTarget=0;pointerEvents=0;fillColor=none;top=0;left=0;bottom=1;right=0;points=[[0,0.5],[1,0.5]];portConstraint=eastwest;" vertex="1" parent="p_RCJzg9CvuN4MjvWSVo-15">
          <mxGeometry y="30" width="180" height="30" as="geometry" />
        </mxCell>
        <mxCell id="p_RCJzg9CvuN4MjvWSVo-17" value="PK" style="shape=partialRectangle;connectable=0;fillColor=none;top=0;left=0;bottom=0;right=0;fontStyle=1;overflow=hidden;" vertex="1" parent="p_RCJzg9CvuN4MjvWSVo-16">
          <mxGeometry width="30" height="30" as="geometry" />
        </mxCell>
        <mxCell id="p_RCJzg9CvuN4MjvWSVo-18" value="userID" style="shape=partialRectangle;connectable=0;fillColor=none;top=0;left=0;bottom=0;right=0;align=left;spacingLeft=6;fontStyle=5;overflow=hidden;" vertex="1" parent="p_RCJzg9CvuN4MjvWSVo-16">
          <mxGeometry x="30" width="150" height="30" as="geometry" />
        </mxCell>
        <mxCell id="p_RCJzg9CvuN4MjvWSVo-19" value="" style="shape=partialRectangle;collapsible=0;dropTarget=0;pointerEvents=0;fillColor=none;top=0;left=0;bottom=0;right=0;points=[[0,0.5],[1,0.5]];portConstraint=eastwest;" vertex="1" parent="p_RCJzg9CvuN4MjvWSVo-15">
          <mxGeometry y="60" width="180" height="30" as="geometry" />
        </mxCell>
        <mxCell id="p_RCJzg9CvuN4MjvWSVo-20" value="" style="shape=partialRectangle;connectable=0;fillColor=none;top=0;left=0;bottom=0;right=0;editable=1;overflow=hidden;" vertex="1" parent="p_RCJzg9CvuN4MjvWSVo-19">
          <mxGeometry width="30" height="30" as="geometry" />
        </mxCell>
        <mxCell id="p_RCJzg9CvuN4MjvWSVo-21" value="role" style="shape=partialRectangle;connectable=0;fillColor=none;top=0;left=0;bottom=0;right=0;align=left;spacingLeft=6;overflow=hidden;" vertex="1" parent="p_RCJzg9CvuN4MjvWSVo-19">
          <mxGeometry x="30" width="150" height="30" as="geometry" />
        </mxCell>
        <mxCell id="p_RCJzg9CvuN4MjvWSVo-22" value="" style="shape=partialRectangle;collapsible=0;dropTarget=0;pointerEvents=0;fillColor=none;top=0;left=0;bottom=0;right=0;points=[[0,0.5],[1,0.5]];portConstraint=eastwest;" vertex="1" parent="p_RCJzg9CvuN4MjvWSVo-15">
          <mxGeometry y="90" width="180" height="30" as="geometry" />
        </mxCell>
        <mxCell id="p_RCJzg9CvuN4MjvWSVo-23" value="" style="shape=partialRectangle;connectable=0;fillColor=none;top=0;left=0;bottom=0;right=0;editable=1;overflow=hidden;" vertex="1" parent="p_RCJzg9CvuN4MjvWSVo-22">
          <mxGeometry width="30" height="30" as="geometry" />
        </mxCell>
        <mxCell id="p_RCJzg9CvuN4MjvWSVo-24" value="name" style="shape=partialRectangle;connectable=0;fillColor=none;top=0;left=0;bottom=0;right=0;align=left;spacingLeft=6;overflow=hidden;" vertex="1" parent="p_RCJzg9CvuN4MjvWSVo-22">
          <mxGeometry x="30" width="150" height="30" as="geometry" />
        </mxCell>
        <mxCell id="p_RCJzg9CvuN4MjvWSVo-25" value="" style="shape=partialRectangle;collapsible=0;dropTarget=0;pointerEvents=0;fillColor=none;top=0;left=0;bottom=0;right=0;points=[[0,0.5],[1,0.5]];portConstraint=eastwest;" vertex="1" parent="p_RCJzg9CvuN4MjvWSVo-15">
          <mxGeometry y="120" width="180" height="30" as="geometry" />
        </mxCell>
        <mxCell id="p_RCJzg9CvuN4MjvWSVo-26" value="" style="shape=partialRectangle;connectable=0;fillColor=none;top=0;left=0;bottom=0;right=0;editable=1;overflow=hidden;" vertex="1" parent="p_RCJzg9CvuN4MjvWSVo-25">
          <mxGeometry width="30" height="30" as="geometry" />
        </mxCell>
        <mxCell id="p_RCJzg9CvuN4MjvWSVo-27" value="password" style="shape=partialRectangle;connectable=0;fillColor=none;top=0;left=0;bottom=0;right=0;align=left;spacingLeft=6;overflow=hidden;" vertex="1" parent="p_RCJzg9CvuN4MjvWSVo-25">
          <mxGeometry x="30" width="150" height="30" as="geometry" />
        </mxCell>
        <mxCell id="p_RCJzg9CvuN4MjvWSVo-28" value="Log" style="shape=table;startSize=30;container=1;collapsible=1;childLayout=tableLayout;fixedRows=1;rowLines=0;fontStyle=1;align=center;resizeLast=1;" vertex="1" parent="1">
          <mxGeometry x="670" y="390" width="180" height="160" as="geometry" />
        </mxCell>
        <mxCell id="p_RCJzg9CvuN4MjvWSVo-29" value="" style="shape=partialRectangle;collapsible=0;dropTarget=0;pointerEvents=0;fillColor=none;top=0;left=0;bottom=1;right=0;points=[[0,0.5],[1,0.5]];portConstraint=eastwest;" vertex="1" parent="p_RCJzg9CvuN4MjvWSVo-28">
          <mxGeometry y="30" width="180" height="30" as="geometry" />
        </mxCell>
        <mxCell id="p_RCJzg9CvuN4MjvWSVo-30" value="PK" style="shape=partialRectangle;connectable=0;fillColor=none;top=0;left=0;bottom=0;right=0;fontStyle=1;overflow=hidden;" vertex="1" parent="p_RCJzg9CvuN4MjvWSVo-29">
          <mxGeometry width="30" height="30" as="geometry" />
        </mxCell>
        <mxCell id="p_RCJzg9CvuN4MjvWSVo-31" value="logID" style="shape=partialRectangle;connectable=0;fillColor=none;top=0;left=0;bottom=0;right=0;align=left;spacingLeft=6;fontStyle=5;overflow=hidden;" vertex="1" parent="p_RCJzg9CvuN4MjvWSVo-29">
          <mxGeometry x="30" width="150" height="30" as="geometry" />
        </mxCell>
        <mxCell id="p_RCJzg9CvuN4MjvWSVo-32" value="" style="shape=partialRectangle;collapsible=0;dropTarget=0;pointerEvents=0;fillColor=none;top=0;left=0;bottom=0;right=0;points=[[0,0.5],[1,0.5]];portConstraint=eastwest;" vertex="1" parent="p_RCJzg9CvuN4MjvWSVo-28">
          <mxGeometry y="60" width="180" height="30" as="geometry" />
        </mxCell>
        <mxCell id="p_RCJzg9CvuN4MjvWSVo-33" value="" style="shape=partialRectangle;connectable=0;fillColor=none;top=0;left=0;bottom=0;right=0;editable=1;overflow=hidden;" vertex="1" parent="p_RCJzg9CvuN4MjvWSVo-32">
          <mxGeometry width="30" height="30" as="geometry" />
        </mxCell>
        <mxCell id="p_RCJzg9CvuN4MjvWSVo-34" value="action" style="shape=partialRectangle;connectable=0;fillColor=none;top=0;left=0;bottom=0;right=0;align=left;spacingLeft=6;overflow=hidden;" vertex="1" parent="p_RCJzg9CvuN4MjvWSVo-32">
          <mxGeometry x="30" width="150" height="30" as="geometry" />
        </mxCell>
        <mxCell id="p_RCJzg9CvuN4MjvWSVo-35" value="" style="shape=partialRectangle;collapsible=0;dropTarget=0;pointerEvents=0;fillColor=none;top=0;left=0;bottom=0;right=0;points=[[0,0.5],[1,0.5]];portConstraint=eastwest;" vertex="1" parent="p_RCJzg9CvuN4MjvWSVo-28">
          <mxGeometry y="90" width="180" height="30" as="geometry" />
        </mxCell>
        <mxCell id="p_RCJzg9CvuN4MjvWSVo-36" value="FK" style="shape=partialRectangle;connectable=0;fillColor=none;top=0;left=0;bottom=0;right=0;editable=1;overflow=hidden;" vertex="1" parent="p_RCJzg9CvuN4MjvWSVo-35">
          <mxGeometry width="30" height="30" as="geometry" />
        </mxCell>
        <mxCell id="p_RCJzg9CvuN4MjvWSVo-37" value="userID" style="shape=partialRectangle;connectable=0;fillColor=none;top=0;left=0;bottom=0;right=0;align=left;spacingLeft=6;overflow=hidden;" vertex="1" parent="p_RCJzg9CvuN4MjvWSVo-35">
          <mxGeometry x="30" width="150" height="30" as="geometry" />
        </mxCell>
        <mxCell id="p_RCJzg9CvuN4MjvWSVo-38" value="" style="shape=partialRectangle;collapsible=0;dropTarget=0;pointerEvents=0;fillColor=none;top=0;left=0;bottom=0;right=0;points=[[0,0.5],[1,0.5]];portConstraint=eastwest;" vertex="1" parent="p_RCJzg9CvuN4MjvWSVo-28">
          <mxGeometry y="120" width="180" height="30" as="geometry" />
        </mxCell>
        <mxCell id="p_RCJzg9CvuN4MjvWSVo-39" value="" style="shape=partialRectangle;connectable=0;fillColor=none;top=0;left=0;bottom=0;right=0;editable=1;overflow=hidden;" vertex="1" parent="p_RCJzg9CvuN4MjvWSVo-38">
          <mxGeometry width="30" height="30" as="geometry" />
        </mxCell>
        <mxCell id="p_RCJzg9CvuN4MjvWSVo-40" value="date" style="shape=partialRectangle;connectable=0;fillColor=none;top=0;left=0;bottom=0;right=0;align=left;spacingLeft=6;overflow=hidden;" vertex="1" parent="p_RCJzg9CvuN4MjvWSVo-38">
          <mxGeometry x="30" width="150" height="30" as="geometry" />
        </mxCell>
        <mxCell id="p_RCJzg9CvuN4MjvWSVo-41" value="Config" style="shape=table;startSize=30;container=1;collapsible=1;childLayout=tableLayout;fixedRows=1;rowLines=0;fontStyle=1;align=center;resizeLast=1;" vertex="1" parent="1">
          <mxGeometry x="50" y="310" width="180" height="160" as="geometry" />
        </mxCell>
        <mxCell id="p_RCJzg9CvuN4MjvWSVo-42" value="" style="shape=partialRectangle;collapsible=0;dropTarget=0;pointerEvents=0;fillColor=none;top=0;left=0;bottom=1;right=0;points=[[0,0.5],[1,0.5]];portConstraint=eastwest;" vertex="1" parent="p_RCJzg9CvuN4MjvWSVo-41">
          <mxGeometry y="30" width="180" height="30" as="geometry" />
        </mxCell>
        <mxCell id="p_RCJzg9CvuN4MjvWSVo-43" value="PK" style="shape=partialRectangle;connectable=0;fillColor=none;top=0;left=0;bottom=0;right=0;fontStyle=1;overflow=hidden;" vertex="1" parent="p_RCJzg9CvuN4MjvWSVo-42">
          <mxGeometry width="30" height="30" as="geometry" />
        </mxCell>
        <mxCell id="p_RCJzg9CvuN4MjvWSVo-44" value="configID" style="shape=partialRectangle;connectable=0;fillColor=none;top=0;left=0;bottom=0;right=0;align=left;spacingLeft=6;fontStyle=5;overflow=hidden;" vertex="1" parent="p_RCJzg9CvuN4MjvWSVo-42">
          <mxGeometry x="30" width="150" height="30" as="geometry" />
        </mxCell>
        <mxCell id="p_RCJzg9CvuN4MjvWSVo-45" value="" style="shape=partialRectangle;collapsible=0;dropTarget=0;pointerEvents=0;fillColor=none;top=0;left=0;bottom=0;right=0;points=[[0,0.5],[1,0.5]];portConstraint=eastwest;" vertex="1" parent="p_RCJzg9CvuN4MjvWSVo-41">
          <mxGeometry y="60" width="180" height="30" as="geometry" />
        </mxCell>
        <mxCell id="p_RCJzg9CvuN4MjvWSVo-46" value="" style="shape=partialRectangle;connectable=0;fillColor=none;top=0;left=0;bottom=0;right=0;editable=1;overflow=hidden;" vertex="1" parent="p_RCJzg9CvuN4MjvWSVo-45">
          <mxGeometry width="30" height="30" as="geometry" />
        </mxCell>
        <mxCell id="p_RCJzg9CvuN4MjvWSVo-47" value="fillColor" style="shape=partialRectangle;connectable=0;fillColor=none;top=0;left=0;bottom=0;right=0;align=left;spacingLeft=6;overflow=hidden;" vertex="1" parent="p_RCJzg9CvuN4MjvWSVo-45">
          <mxGeometry x="30" width="150" height="30" as="geometry" />
        </mxCell>
        <mxCell id="p_RCJzg9CvuN4MjvWSVo-48" value="" style="shape=partialRectangle;collapsible=0;dropTarget=0;pointerEvents=0;fillColor=none;top=0;left=0;bottom=0;right=0;points=[[0,0.5],[1,0.5]];portConstraint=eastwest;" vertex="1" parent="p_RCJzg9CvuN4MjvWSVo-41">
          <mxGeometry y="90" width="180" height="30" as="geometry" />
        </mxCell>
        <mxCell id="p_RCJzg9CvuN4MjvWSVo-49" value="" style="shape=partialRectangle;connectable=0;fillColor=none;top=0;left=0;bottom=0;right=0;editable=1;overflow=hidden;" vertex="1" parent="p_RCJzg9CvuN4MjvWSVo-48">
          <mxGeometry width="30" height="30" as="geometry" />
        </mxCell>
        <mxCell id="p_RCJzg9CvuN4MjvWSVo-50" value="penColor" style="shape=partialRectangle;connectable=0;fillColor=none;top=0;left=0;bottom=0;right=0;align=left;spacingLeft=6;overflow=hidden;" vertex="1" parent="p_RCJzg9CvuN4MjvWSVo-48">
          <mxGeometry x="30" width="150" height="30" as="geometry" />
        </mxCell>
        <mxCell id="p_RCJzg9CvuN4MjvWSVo-51" value="" style="shape=partialRectangle;collapsible=0;dropTarget=0;pointerEvents=0;fillColor=none;top=0;left=0;bottom=0;right=0;points=[[0,0.5],[1,0.5]];portConstraint=eastwest;" vertex="1" parent="p_RCJzg9CvuN4MjvWSVo-41">
          <mxGeometry y="120" width="180" height="30" as="geometry" />
        </mxCell>
        <mxCell id="p_RCJzg9CvuN4MjvWSVo-52" value="FK" style="shape=partialRectangle;connectable=0;fillColor=none;top=0;left=0;bottom=0;right=0;editable=1;overflow=hidden;" vertex="1" parent="p_RCJzg9CvuN4MjvWSVo-51">
          <mxGeometry width="30" height="30" as="geometry" />
        </mxCell>
        <mxCell id="p_RCJzg9CvuN4MjvWSVo-53" value="userID" style="shape=partialRectangle;connectable=0;fillColor=none;top=0;left=0;bottom=0;right=0;align=left;spacingLeft=6;overflow=hidden;" vertex="1" parent="p_RCJzg9CvuN4MjvWSVo-51">
          <mxGeometry x="30" width="150" height="30" as="geometry" />
        </mxCell>
        <mxCell id="p_RCJzg9CvuN4MjvWSVo-70" value="" style="edgeStyle=entityRelationEdgeStyle;fontSize=12;html=1;endArrow=ERmandOne;startArrow=ERmandOne;entryX=-0.011;entryY=0.233;entryDx=0;entryDy=0;entryPerimeter=0;" edge="1" parent="1" source="p_RCJzg9CvuN4MjvWSVo-51" target="p_RCJzg9CvuN4MjvWSVo-16">
          <mxGeometry width="100" height="100" relative="1" as="geometry">
            <mxPoint x="500" y="400" as="sourcePoint" />
            <mxPoint x="600" y="300" as="targetPoint" />
          </mxGeometry>
        </mxCell>
        <mxCell id="p_RCJzg9CvuN4MjvWSVo-74" value="" style="edgeStyle=entityRelationEdgeStyle;fontSize=12;html=1;endArrow=ERzeroToMany;endFill=1;entryX=0;entryY=0.5;entryDx=0;entryDy=0;exitX=1;exitY=0.25;exitDx=0;exitDy=0;" edge="1" parent="1" source="p_RCJzg9CvuN4MjvWSVo-15" target="p_RCJzg9CvuN4MjvWSVo-6">
          <mxGeometry width="100" height="100" relative="1" as="geometry">
            <mxPoint x="500" y="400" as="sourcePoint" />
            <mxPoint x="600" y="300" as="targetPoint" />
          </mxGeometry>
        </mxCell>
        <mxCell id="p_RCJzg9CvuN4MjvWSVo-75" value="" style="edgeStyle=entityRelationEdgeStyle;fontSize=12;html=1;endArrow=ERoneToMany;entryX=0;entryY=0.5;entryDx=0;entryDy=0;exitX=1.011;exitY=0.733;exitDx=0;exitDy=0;exitPerimeter=0;" edge="1" parent="1" source="p_RCJzg9CvuN4MjvWSVo-16" target="p_RCJzg9CvuN4MjvWSVo-35">
          <mxGeometry width="100" height="100" relative="1" as="geometry">
            <mxPoint x="500" y="400" as="sourcePoint" />
            <mxPoint x="600" y="300" as="targetPoint" />
          </mxGeometry>
        </mxCell>
      </root>
    </mxGraphModel>
  </diagram>
</mxfile>
